<?xml version="1.0" encoding="iso-8859-1"?>
<!-- Uploaded to: SVG Repo, www.svgrepo.com, Generator: SVG Repo Mixer Tools -->
<svg version="1.1" id="Layer_1" xmlns="http://www.w3.org/2000/svg" xmlns:xlink="http://www.w3.org/1999/xlink" 
	 viewBox="0 0 512 512" xml:space="preserve">
<polygon style="fill:#EEEEEE;" points="503.83,8.17 503.83,503.83 471.149,503.83 394.894,256 471.149,8.17 "/>
<rect x="8.17" y="8.17" style="fill:#FFFFFF;" width="462.979" height="495.66"/>
<polygon style="fill:#FE5F1A;" points="471.149,40.851 471.149,73.532 438.468,73.532 409.259,57.191 438.468,40.851 "/>
<rect x="40.851" y="40.851" style="fill:#FE834D;" width="397.617" height="32.681"/>
<polygon style="fill:#81E3E2;" points="471.149,358.582 471.149,471.149 438.468,471.149 409.259,414.865 438.468,358.582 "/>
<rect x="40.851" y="358.585" style="fill:#ABECEC;" width="397.617" height="112.564"/>
<g>
	<path style="fill:#42C8C6;" d="M316.822,236.029H195.178c-4.513,0-8.17-3.657-8.17-8.17V106.213c0-4.513,3.657-8.17,8.17-8.17
		h121.645c4.513,0,8.17,3.657,8.17,8.17v121.646C324.993,232.372,321.336,236.029,316.822,236.029z M203.348,219.688h105.304
		V114.383H203.348V219.688z"/>
	<path style="fill:#42C8C6;" d="M316.822,236.029c-2.092,0-4.182-0.797-5.778-2.392L189.4,111.991
		c-3.191-3.192-3.191-8.364,0-11.555c3.193-3.191,8.365-3.189,11.555,0l121.645,121.646c3.191,3.192,3.191,8.364,0,11.555
		C321.004,235.231,318.913,236.029,316.822,236.029z"/>
	<path style="fill:#42C8C6;" d="M195.178,236.029c-2.09,0-4.182-0.797-5.778-2.392c-3.191-3.192-3.191-8.364,0-11.555
		l121.645-121.647c3.192-3.19,8.364-3.19,11.555,0c3.191,3.192,3.191,8.364,0,11.555L200.956,233.636
		C199.36,235.231,197.268,236.029,195.178,236.029z"/>
	<path style="fill:#42C8C6;" d="M471.149,236.029H349.503c-4.513,0-8.17-3.657-8.17-8.17V106.213c0-4.513,3.657-8.17,8.17-8.17
		h121.646c4.513,0,8.17,3.657,8.17,8.17v121.646C479.319,232.372,475.662,236.029,471.149,236.029z M357.673,219.688h105.305
		V114.383H357.673V219.688z"/>
	<path style="fill:#42C8C6;" d="M471.149,236.029c-2.09,0-4.182-0.797-5.778-2.392L343.725,111.991
		c-3.191-3.192-3.191-8.364,0-11.555c3.192-3.19,8.364-3.19,11.555,0l121.646,121.646c3.191,3.192,3.191,8.364,0,11.555
		C475.331,235.231,473.239,236.029,471.149,236.029z"/>
	<path style="fill:#42C8C6;" d="M349.503,236.029c-2.09,0-4.182-0.797-5.778-2.392c-3.191-3.192-3.191-8.364,0-11.555
		l121.646-121.647c3.192-3.19,8.364-3.19,11.555,0c3.191,3.192,3.191,8.364,0,11.555L355.281,233.636
		C353.685,235.231,351.594,236.029,349.503,236.029z"/>
	<path style="fill:#42C8C6;" d="M162.497,236.029H40.851c-4.513,0-8.17-3.657-8.17-8.17V106.213c0-4.513,3.657-8.17,8.17-8.17
		h121.646c4.513,0,8.17,3.657,8.17,8.17v121.646C170.667,232.372,167.01,236.029,162.497,236.029z M49.021,219.688h105.305V114.383
		H49.021V219.688z"/>
	<path style="fill:#42C8C6;" d="M162.497,236.029c-2.09,0-4.182-0.797-5.778-2.392L35.073,111.991
		c-3.191-3.192-3.191-8.364,0-11.555c3.192-3.19,8.364-3.19,11.555,0l121.646,121.646c3.191,3.192,3.191,8.364,0,11.555
		C166.679,235.231,164.587,236.029,162.497,236.029z"/>
	<path style="fill:#42C8C6;" d="M40.851,236.029c-2.09,0-4.182-0.797-5.778-2.392c-3.191-3.192-3.191-8.364,0-11.555
		l121.646-121.647c3.192-3.19,8.364-3.19,11.555,0c3.191,3.192,3.191,8.364,0,11.555L46.629,233.636
		C45.033,235.231,42.942,236.029,40.851,236.029z"/>
</g>
<path d="M503.83,0H8.17C3.657,0,0,3.657,0,8.17v495.66c0,4.513,3.657,8.17,8.17,8.17h495.66c4.513,0,8.17-3.657,8.17-8.17V8.17
	C512,3.657,508.343,0,503.83,0z M495.66,495.66H16.34V16.34H495.66V495.66z"/>
<path d="M40.851,81.702h430.298c4.513,0,8.17-3.657,8.17-8.17V40.851c0-4.513-3.657-8.17-8.17-8.17H40.851
	c-4.513,0-8.17,3.657-8.17,8.17v32.681C32.681,78.045,36.338,81.702,40.851,81.702z M49.021,49.021h413.957v16.34H49.021V49.021z"/>
<path d="M40.851,479.319h430.298c4.513,0,8.17-3.657,8.17-8.17V358.582c0-4.513-3.657-8.17-8.17-8.17H40.851
	c-4.513,0-8.17,3.657-8.17,8.17v112.567C32.681,475.662,36.338,479.319,40.851,479.319z M49.021,366.752h413.957v96.227H49.021
	V366.752z"/>
<path d="M316.822,252.369H195.178c-4.513,0-8.17,3.657-8.17,8.17c0,4.513,3.657,8.17,8.17,8.17h121.645
	c4.513,0,8.17-3.657,8.17-8.17C324.993,256.026,321.336,252.369,316.822,252.369z"/>
<path d="M471.149,252.369H349.503c-4.513,0-8.17,3.657-8.17,8.17c0,4.513,3.657,8.17,8.17,8.17h121.646
	c4.513,0,8.17-3.657,8.17-8.17C479.319,256.026,475.662,252.369,471.149,252.369z"/>
<path d="M40.851,268.71h121.646c4.513,0,8.17-3.657,8.17-8.17c0-4.513-3.657-8.17-8.17-8.17H40.851c-4.513,0-8.17,3.657-8.17,8.17
	C32.681,265.053,36.338,268.71,40.851,268.71z"/>
<path d="M324.993,293.22c0-4.513-3.657-8.17-8.17-8.17H195.178c-4.513,0-8.17,3.657-8.17,8.17c0,4.513,3.657,8.17,8.17,8.17h121.645
	C321.336,301.39,324.993,297.733,324.993,293.22z"/>
<path d="M479.319,293.22c0-4.513-3.657-8.17-8.17-8.17H349.503c-4.513,0-8.17,3.657-8.17,8.17c0,4.513,3.657,8.17,8.17,8.17h121.646
	C475.662,301.39,479.319,297.733,479.319,293.22z"/>
<path d="M40.851,301.39h121.646c4.513,0,8.17-3.657,8.17-8.17c0-4.513-3.657-8.17-8.17-8.17H40.851c-4.513,0-8.17,3.657-8.17,8.17
	C32.681,297.733,36.338,301.39,40.851,301.39z"/>
<path d="M195.178,317.731c-4.513,0-8.17,3.657-8.17,8.17c0,4.513,3.657,8.17,8.17,8.17h61.004c4.513,0,8.17-3.657,8.17-8.17
	c0-4.513-3.657-8.17-8.17-8.17H195.178z"/>
<path d="M349.503,317.731c-4.513,0-8.17,3.657-8.17,8.17c0,4.513,3.657,8.17,8.17,8.17h61.004c4.513,0,8.17-3.657,8.17-8.17
	c0-4.513-3.657-8.17-8.17-8.17H349.503z"/>
<path d="M40.851,334.071h61.004c4.513,0,8.17-3.657,8.17-8.17c0-4.513-3.657-8.17-8.17-8.17H40.851c-4.513,0-8.17,3.657-8.17,8.17
	C32.681,330.414,36.338,334.071,40.851,334.071z"/>
</svg>